<?xml version="1.0" standalone="no"?>
<!DOCTYPE svg PUBLIC "-//W3C//DTD SVG 20010904//EN"
 "http://www.w3.org/TR/2001/REC-SVG-20010904/DTD/svg10.dtd">
<svg version="1.0" xmlns="http://www.w3.org/2000/svg"
 width="600.000000pt" height="295.000000pt" viewBox="0 0 600.000000 295.000000"
 preserveAspectRatio="xMidYMid meet">
<metadata>
Created by potrace 1.13, written by Peter Selinger 2001-2015
</metadata>
<g transform="translate(0.000000,295.000000) scale(0.100000,-0.100000)"
fill="#000000" stroke="none">
<path d="M2480 2943 c-93 -18 -261 -66 -485 -138 -398 -129 -541 -165 -706
-180 -68 -6 -78 -10 -88 -31 -10 -22 -17 -24 -79 -24 l-68 0 -36 -67 c-271
-506 -838 -1623 -946 -1863 -74 -164 -80 -185 -55 -195 51 -20 545 -4 1358 45
789 47 1243 62 1312 44 12 -3 24 -16 27 -29 8 -32 67 -53 183 -64 90 -8 210
-2 290 14 29 7 37 2 112 -74 97 -98 170 -207 207 -307 15 -41 29 -73 31 -70 2
2 19 62 38 132 66 254 74 264 204 245 87 -13 251 -58 370 -101 44 -16 81 -26
81 -21 0 27 -174 162 -286 223 -41 22 -73 42 -72 44 2 2 193 -3 423 -11 862
-31 1628 -35 1688 -10 9 4 17 14 17 21 0 71 -411 689 -1142 1717 l-218 307
-64 0 c-61 0 -65 1 -93 36 -26 32 -36 37 -108 49 -100 18 -236 53 -638 166
-407 113 -506 133 -667 134 -117 0 -129 -2 -182 -28 -31 -15 -63 -39 -72 -52
-22 -33 -31 -31 -46 6 -7 17 -31 43 -53 57 -33 22 -51 26 -125 28 -48 1 -98 0
-112 -3z m172 -53 c43 -12 71 -45 140 -158 55 -92 68 -103 165 -138 69 -25
103 -52 103 -84 0 -10 -20 -45 -45 -78 -25 -33 -45 -71 -45 -84 0 -77 179
-137 535 -178 190 -22 344 -70 394 -124 63 -67 -12 -161 -168 -210 -185 -58
-370 -75 -961 -86 -261 -5 -509 -14 -550 -19 -228 -30 -438 -103 -491 -169
-30 -38 -24 -66 21 -105 48 -41 145 -75 435 -152 116 -31 211 -57 212 -58 1
-1 -56 -3 -125 -3 -205 -2 -445 -52 -1112 -229 -288 -76 -476 -120 -618 -145
-94 -16 -103 -16 -99 -1 5 18 567 1246 702 1533 l87 187 57 6 c183 19 319 51
681 160 286 86 342 101 470 125 112 21 162 24 212 10z m689 -40 c80 -16 264
-64 410 -106 315 -91 498 -139 597 -155 l72 -12 560 -834 c308 -459 560 -835
560 -837 0 -13 -277 60 -595 154 -434 130 -596 168 -825 196 -321 39 -579 -10
-842 -162 l-46 -26 -36 40 c-73 80 -161 113 -677 251 -124 33 -243 68 -265 77
-165 69 -108 139 141 174 44 6 91 13 105 15 14 3 169 9 345 15 379 11 531 23
760 55 172 25 293 53 347 81 46 24 108 84 129 125 38 75 15 169 -53 221 -125
95 -272 129 -693 157 -253 18 -295 50 -230 175 14 27 25 59 25 71 0 33 -39 62
-100 74 -97 20 -178 84 -194 153 -8 36 32 83 99 115 46 22 58 24 155 18 58 -4
171 -19 251 -35z m-2171 -315 c0 -3 -176 -375 -391 -827 -428 -900 -441 -929
-435 -936 3 -2 56 3 118 13 230 35 480 92 878 200 572 156 693 179 945 179
165 0 200 -3 270 -22 90 -25 232 -91 259 -120 10 -12 21 -49 27 -88 11 -83 48
-160 109 -227 l45 -50 -75 6 c-99 8 -137 23 -156 58 -31 62 -42 64 -323 63
-238 0 -457 -10 -791 -35 -185 -14 -310 -31 -625 -89 -398 -73 -531 -91 -718
-97 l-167 -6 24 54 c191 432 543 1169 814 1707 l112 222 40 0 c22 0 40 -2 40
-5z m3621 -273 c357 -521 1007 -1499 1039 -1564 38 -79 35 -99 -12 -93 -18 3
-116 9 -218 15 -257 15 -559 43 -1085 100 -606 66 -803 82 -979 78 l-149 -3
-33 38 c-27 33 -91 165 -82 172 2 1 30 18 63 38 265 162 599 193 1038 98 118
-26 195 -47 637 -174 201 -58 421 -117 490 -131 69 -14 136 -29 149 -32 17 -3
22 -1 18 8 -2 7 -252 382 -554 833 -302 451 -558 832 -567 848 l-18 27 43 0
44 0 176 -258z m-854 -144 c47 -28 91 -83 99 -123 12 -67 -58 -138 -181 -184
-86 -32 -116 -35 -49 -4 34 16 80 41 102 57 42 29 82 94 82 135 0 46 -42 101
-105 135 -26 15 -27 16 -5 10 14 -3 39 -15 57 -26z m-1007 -418 c-8 -5 -37
-10 -65 -10 -57 0 -421 -34 -540 -50 -135 -19 -235 -76 -235 -135 0 -51 69
-82 420 -185 622 -183 603 -173 711 -383 99 -192 196 -275 476 -408 79 -38
143 -73 143 -79 0 -6 -34 -10 -87 -10 -124 0 -150 -14 -186 -105 -15 -38 -35
-77 -43 -85 -16 -16 -16 -17 -172 159 -35 39 -122 118 -193 176 -121 99 -186
170 -222 241 -9 17 -27 74 -40 127 -31 121 -50 153 -117 199 -103 70 -272 129
-660 229 -274 71 -324 91 -328 132 -5 40 18 61 104 97 128 53 230 73 489 93
105 9 559 6 545 -3z"/>
</g>
</svg>
